<svg width="230" height="79" viewBox="0 0 230 79" fill="none" xmlns="http://www.w3.org/2000/svg">
<mask id="mask0_57_82" style="mask-type:luminance" maskUnits="userSpaceOnUse" x="0" y="0" width="230" height="79">
<path d="M230 0H0V79H230V0Z" fill="white"/>
</mask>
<g mask="url(#mask0_57_82)">
<path d="M59.2086 12.4152C62.6651 12.4152 66.2658 12.6386 69.9376 13.0802C71.1505 22.8866 70.7308 31.9282 68.6864 39.9818C66.4512 48.7836 62.3107 56.2178 56.3791 62.0769C51.6744 66.7243 45.931 70.2811 39.3072 72.6425C32.8141 74.9609 25.4761 76.1349 17.503 76.1349C14.0466 76.1349 10.4457 75.9114 6.774 75.4697C5.561 65.6634 5.98077 56.6217 8.02516 48.5683C10.2604 39.7663 14.4009 32.3321 20.3323 26.473C25.0372 21.8257 30.7807 18.2688 37.4045 15.9074C43.9002 13.5918 51.2355 12.4152 59.2086 12.4152ZM59.2086 9.55028C42.7854 9.55028 28.5045 14.3511 18.2825 24.4482C5.38653 37.1869 1.02244 56.3175 4.19533 78.0223C8.7557 78.6712 13.2043 79.0024 17.5057 79.0024C33.929 79.0024 48.2098 74.2015 58.4317 64.1045C71.3277 51.3659 75.6918 32.2352 72.5217 10.5331C67.9587 9.88146 63.5101 9.55028 59.2086 9.55028Z" fill="url(#paint0_linear_57_82)"/>
<path d="M3.40171 59.3685C3.01464 56.3366 2.84564 53.3694 2.90288 50.4803C3.07733 41.4845 5.41066 33.4121 9.84019 26.4868C14.2697 19.5615 20.6482 14.0094 28.7959 9.99212C36.2591 6.31138 45.061 3.97423 54.9831 3.03722C55.7954 5.24244 56.4987 7.42341 57.1066 9.58286C57.8017 9.56401 58.5023 9.55324 59.2055 9.55324C59.5054 9.55324 59.8051 9.55863 60.1051 9.56131C59.2437 6.40562 58.186 3.21493 56.9212 0C34.869 1.61016 17.031 9.88174 7.38964 24.9574C-1.26496 38.4876 -2.05819 55.5585 3.65522 73.6418C3.16183 68.7171 3.0746 63.9432 3.40171 59.3685Z" fill="url(#paint1_linear_57_82)"/>
<path d="M55.1567 25.3831L53.7557 30.1435C53.3931 31.3795 52.1311 32.373 51.3325 32.373H32.4477L33.8488 27.6125C34.2114 26.3767 35.4734 25.3831 36.2721 25.3831H55.1567ZM59.0194 22.5182H36.2748C34.0968 22.5182 31.7635 24.4407 31.0656 26.8129L28.5879 35.2379H51.3325C53.5105 35.2379 55.8437 33.3154 56.5415 30.9433L59.0194 22.5182Z" fill="url(#paint2_linear_57_82)"/>
<path d="M49.2401 41.0457L47.9208 45.3888C47.5746 46.525 46.3507 47.4432 45.5656 47.4432H27.0571L28.3765 43.1001C28.7227 41.9638 29.9466 41.0457 30.7316 41.0457H49.2401ZM53.1381 38.1807H30.7316C28.5836 38.1807 26.2884 40.0144 25.6014 42.2762L23.1592 50.3081H45.5656C47.7137 50.3081 50.0088 48.4744 50.6958 46.2127L53.1381 38.1807Z" fill="url(#paint3_linear_57_82)"/>
<path d="M31.3388 56.2017L30.0195 60.5449C29.6733 61.6812 28.4494 62.5993 27.6643 62.5993H21.6865L23.0059 58.2562C23.3521 57.12 24.576 56.2017 25.361 56.2017H31.3388ZM35.2368 53.3369H25.361C23.213 53.3369 20.9178 55.1706 20.2308 57.4323L17.7886 65.4643H27.6643C29.8122 65.4643 32.1074 63.6306 32.7944 61.3689L35.2368 53.3369Z" fill="url(#paint4_linear_57_82)"/>
<path d="M90.3477 64.2419C89.5462 64.2419 88.8975 63.6012 88.8975 62.8096V16.3277C88.8975 15.5361 89.5462 14.8952 90.3477 14.8952C91.1491 14.8952 91.7979 15.5361 91.7979 16.3277V62.8096C91.7979 63.6012 91.1491 64.2419 90.3477 64.2419Z" fill="#7F5199"/>
</g>
<path d="M110.566 32.4535V9.47168H119.117C120.775 9.47168 122.147 9.741 123.234 10.2796C124.321 10.8108 125.134 11.5327 125.674 12.4454C126.213 13.3506 126.483 14.3718 126.483 15.5089C126.483 16.4665 126.305 17.2744 125.947 17.9328C125.59 18.5836 125.111 19.1073 124.511 19.5038C123.918 19.8928 123.264 20.1771 122.55 20.3566V20.5811C123.325 20.6185 124.081 20.8653 124.819 21.3217C125.563 21.7705 126.179 22.4102 126.666 23.2406C127.152 24.071 127.395 25.0809 127.395 26.2704C127.395 27.4449 127.114 28.4998 126.552 29.4349C125.997 30.3625 125.138 31.0994 123.975 31.6455C122.812 32.1842 121.326 32.4535 119.517 32.4535H110.566ZM114.089 29.4798H119.174C120.862 29.4798 122.071 29.1581 122.8 28.5147C123.53 27.8713 123.895 27.0671 123.895 26.1021C123.895 25.3764 123.709 24.7106 123.336 24.1046C122.964 23.4987 122.432 23.0161 121.74 22.657C121.056 22.298 120.242 22.1184 119.3 22.1184H114.089V29.4798ZM114.089 19.414H118.81C119.6 19.414 120.311 19.2644 120.942 18.9651C121.58 18.6659 122.086 18.247 122.458 17.7083C122.838 17.1622 123.028 16.5188 123.028 15.7782C123.028 14.8281 122.69 14.0314 122.014 13.388C121.337 12.7446 120.299 12.423 118.901 12.423H114.089V19.414Z" fill="#7F5199"/>
<path d="M132.905 32.4535H129.165L137.568 9.47168H141.639L150.042 32.4535H146.302L139.7 13.6461H139.518L132.905 32.4535ZM133.532 23.4538H145.664V26.3714H133.532V23.4538Z" fill="#7F5199"/>
<path d="M171.62 9.47168V32.4535H168.381L156.512 15.5987H156.295V32.4535H152.772V9.47168H156.033L167.914 26.3489H168.131V9.47168H171.62Z" fill="#7F5199"/>
<path d="M176.117 32.4535V9.47168H179.64V20.4464H179.925L189.72 9.47168H194.155L184.737 19.818L194.189 32.4535H189.948L182.399 22.1857L179.64 25.3053V32.4535H176.117Z" fill="#7F5199"/>
<path d="M110.566 66.6556V43.6738H125.047V46.6587H114.089V53.661H124.009V56.6347H114.089V66.6556H110.566Z" fill="#7F5199"/>
<path d="M143.754 43.6738H147.288V58.7893C147.288 60.3977 146.905 61.8228 146.137 63.0647C145.369 64.2991 144.29 65.2716 142.899 65.9823C141.508 66.6855 139.877 67.0371 138.007 67.0371C136.145 67.0371 134.518 66.6855 133.127 65.9823C131.736 65.2716 130.657 64.2991 129.889 63.0647C129.121 61.8228 128.737 60.3977 128.737 58.7893V43.6738H132.26V58.5087C132.26 59.5486 132.492 60.4725 132.956 61.2805C133.427 62.0884 134.092 62.7243 134.951 63.1881C135.81 63.6445 136.829 63.8726 138.007 63.8726C139.193 63.8726 140.215 63.6445 141.074 63.1881C141.941 62.7243 142.602 62.0884 143.058 61.2805C143.522 60.4725 143.754 59.5486 143.754 58.5087V43.6738Z" fill="#7F5199"/>
<path d="M150.617 46.6587V43.6738H168.689V46.6587H161.403V66.6556H157.892V46.6587H150.617Z" fill="#7F5199"/>
<path d="M187.057 43.6738H190.592V58.7893C190.592 60.3977 190.208 61.8228 189.44 63.0647C188.673 64.2991 187.593 65.2716 186.202 65.9823C184.811 66.6855 183.181 67.0371 181.311 67.0371C179.448 67.0371 177.822 66.6855 176.43 65.9823C175.039 65.2716 173.96 64.2991 173.192 63.0647C172.425 61.8228 172.041 60.3977 172.041 58.7893V43.6738H175.564V58.5087C175.564 59.5486 175.796 60.4725 176.259 61.2805C176.731 62.0884 177.396 62.7243 178.255 63.1881C179.114 63.6445 180.132 63.8726 181.311 63.8726C182.496 63.8726 183.519 63.6445 184.378 63.1881C185.244 62.7243 185.906 62.0884 186.362 61.2805C186.825 60.4725 187.057 59.5486 187.057 58.5087V43.6738Z" fill="#7F5199"/>
<path d="M195.072 66.6556V43.6738H203.396C205.205 43.6738 206.706 43.9805 207.899 44.594C209.1 45.2074 209.997 46.0565 210.59 47.1413C211.183 48.2185 211.48 49.4641 211.48 50.878C211.48 52.2845 211.179 53.5226 210.579 54.5924C209.986 55.6547 209.089 56.4814 207.888 57.0724C206.695 57.6634 205.193 57.9589 203.384 57.9589H197.079V54.9739H203.065C204.205 54.9739 205.133 54.8131 205.847 54.4914C206.569 54.1697 207.097 53.7021 207.432 53.0887C207.766 52.4753 207.934 51.7384 207.934 50.878C207.934 50.0102 207.763 49.2584 207.421 48.6225C207.086 47.9866 206.558 47.5003 205.836 47.1637C205.121 46.8196 204.182 46.6475 203.019 46.6475H198.595V66.6556H195.072ZM206.6 56.2869L212.369 66.6556H208.356L202.7 56.2869H206.6Z" fill="#7F5199"/>
<path d="M215.125 66.6556V43.6738H229.765V46.6587H218.648V53.661H229.001V56.6347H218.648V63.6707H229.902V66.6556H215.125Z" fill="#7F5199"/>
<defs>
<linearGradient id="paint0_linear_57_82" x1="3.20253" y1="44.2759" x2="73.5105" y2="44.2759" gradientUnits="userSpaceOnUse">
<stop stop-color="#C9097D"/>
<stop offset="1" stop-color="#7D529A"/>
</linearGradient>
<linearGradient id="paint1_linear_57_82" x1="-0.279348" y1="54.8516" x2="51.5202" y2="-1.31277" gradientUnits="userSpaceOnUse">
<stop stop-color="#C9097D"/>
<stop offset="1" stop-color="#E4AFCB"/>
</linearGradient>
<linearGradient id="paint2_linear_57_82" x1="28.5869" y1="28.8777" x2="59.0197" y2="28.8777" gradientUnits="userSpaceOnUse">
<stop stop-color="#B12087"/>
<stop offset="1" stop-color="#933D92"/>
</linearGradient>
<linearGradient id="paint3_linear_57_82" x1="23.1602" y1="44.243" x2="53.1388" y2="44.243" gradientUnits="userSpaceOnUse">
<stop stop-color="#B12087"/>
<stop offset="1" stop-color="#933D92"/>
</linearGradient>
<linearGradient id="paint4_linear_57_82" x1="17.789" y1="59.3995" x2="35.2365" y2="59.3995" gradientUnits="userSpaceOnUse">
<stop stop-color="#B12087"/>
<stop offset="1" stop-color="#933D92"/>
</linearGradient>
</defs>
</svg>
