<?xml version="1.0" encoding="UTF-8"?> <svg xmlns="http://www.w3.org/2000/svg" viewBox="0 0 1000 546.84"> <defs> <style>.cls-1{fill:none;}.cls-2{fill:#323232;}.cls-3{fill:#d75555;}.cls-4{fill:#c34141;}.cls-5{fill:#fa5a5a;}</style> </defs> <g id="Layer_2" data-name="Layer 2"> <g id="Layer_1-2" data-name="Layer 1"> <rect class="cls-1" width="1000" height="546.84"></rect> <polygon class="cls-2" points="516.88 414.9 529.44 414.9 529.44 449.98 535.03 449.98 535.03 414.9 547.59 414.9 547.59 410.07 516.88 410.07 516.88 414.9"></polygon> <path class="cls-2" d="M502.37,427.17a25.18,25.18,0,0,1-6.05-2.91,5.42,5.42,0,0,1-2.41-4.63,5,5,0,0,1,2.24-4.26,9.77,9.77,0,0,1,5.41-1.39,19.41,19.41,0,0,1,5.57.72,15.53,15.53,0,0,1,3.59,1.47l1.79-4.55a15.21,15.21,0,0,0-4.35-1.7,26.45,26.45,0,0,0-6.6-.77q-6.27,0-9.85,2.93a10,10,0,0,0-3.57,8.18,9.53,9.53,0,0,0,3.12,7.4,21.63,21.63,0,0,0,7.54,3.95,27,27,0,0,1,6.62,3A6.41,6.41,0,0,1,508.3,440q0,6-8.75,6a20.92,20.92,0,0,1-6.63-.92,26.13,26.13,0,0,1-4-1.67l-1.67,4.6a20.75,20.75,0,0,0,4.44,1.76,29.61,29.61,0,0,0,7.89,1.07q7,0,10.8-2.83a9.41,9.41,0,0,0,3.83-8.06,10.68,10.68,0,0,0-3.31-8.24C508.49,429.57,505.31,428.35,502.37,427.17Z"></path> <path class="cls-2" d="M473.8,419.66q-2.7,4.86-5.53,9.36-2.88-4.5-5.59-9.36t-4.89-9.59h-6.57q3.11,5.76,6.62,11.75t7.5,12.15v16h5.58V433.86q3.91-6.12,7.43-12.07T485,410.07h-6.22Q476.51,414.8,473.8,419.66Z"></path> <path class="cls-2" d="M437.28,427.17a24.93,24.93,0,0,1-6-2.91,5.41,5.41,0,0,1-2.42-4.63,5,5,0,0,1,2.24-4.26,9.79,9.79,0,0,1,5.42-1.39,19.26,19.26,0,0,1,5.55.72,15.45,15.45,0,0,1,3.6,1.47l1.79-4.55a15.21,15.21,0,0,0-4.35-1.7,26.37,26.37,0,0,0-6.59-.77q-6.28,0-9.85,2.93a10,10,0,0,0-3.57,8.18,9.53,9.53,0,0,0,3.11,7.4,21.63,21.63,0,0,0,7.54,3.95,26.81,26.81,0,0,1,6.62,3,6.42,6.42,0,0,1,2.89,5.39q0,6-8.76,6a20.81,20.81,0,0,1-6.62-.92,25.9,25.9,0,0,1-4-1.67l-1.67,4.6a21,21,0,0,0,4.44,1.76,29.61,29.61,0,0,0,7.89,1.07c4.64,0,8.25-.94,10.8-2.83a9.41,9.41,0,0,0,3.83-8.06,10.68,10.68,0,0,0-3.31-8.24C443.4,429.57,440.22,428.35,437.28,427.17Z"></path> <rect class="cls-2" x="534.79" y="304.8" width="20.59" height="72.24"></rect> <path class="cls-2" d="M463.34,379q5.7-5,11.05-10.32a219.66,219.66,0,0,0,44.66-63.85H496.13a171.42,171.42,0,0,1-32.79,46.63,171.24,171.24,0,0,1-32.8-46.63H407.62a219.66,219.66,0,0,0,44.66,63.85Q457.62,374,463.34,379Z"></path> <path class="cls-2" d="M661.25,353.51a34.36,34.36,0,0,0,10-4.3,22.48,22.48,0,0,0,0-37.41c-9.22-6.17-22.92-7-34-7H583.18v72.25H603.7V356.18h20.13c13.09,0,27.66,9,35.18,20.87h24.47C679.34,368.77,669.91,358.74,661.25,353.51Zm-20.81-13.74H603.7V321.28h36.74c14.59,0,19.28,4.62,19.28,9.25S655,339.77,640.44,339.77Z"></path> <path class="cls-2" d="M883.41,304.8v33.63c0,17.1-13.25,24.07-28.4,24.07s-28.41-7-28.41-24.07V304.8H806v33.63c0,27.63,24.57,40.54,49,40.54s49-12.93,49-40.54V304.8Z"></path> <polygon class="cls-2" points="694.42 321.28 731.35 321.28 731.35 377.05 751.95 377.05 751.95 321.28 790.42 321.28 790.42 304.8 694.42 304.8 694.42 321.28"></polygon> <path class="cls-2" d="M624.83,410.07h-4.9A138.23,138.23,0,0,0,613,423.29c-2.26,4.76-4.37,9.6-6.51,14.42-2.14-4.82-4.25-9.66-6.51-14.42a136,136,0,0,0-6.91-13.22H588.2c-.77,6.34-1.29,12.09-1.76,19.09S585.56,443,585.26,450h5.47q.28-8.06.69-16t1-14.72c2.24,4,4,8,5.9,12,2.06,4.36,4,8.94,5.9,13.22h4.5c1.85-4.28,3.84-8.86,5.9-13.22,1.89-4,3.66-8,5.91-12q.63,6.8,1,14.72t.69,16h5.48q-.49-10.31-1.23-20.29T624.83,410.07Z"></path> <polygon class="cls-2" points="559.05 431.38 575.76 431.38 575.76 426.71 559.05 426.71 559.05 414.85 577.83 414.85 577.83 410.07 553.46 410.07 553.46 449.98 579.26 449.98 579.26 445.2 559.05 445.2 559.05 431.38"></polygon> <path class="cls-2" d="M648.62,427.17a24.82,24.82,0,0,1-6-2.91,5.41,5.41,0,0,1-2.42-4.63,5,5,0,0,1,2.25-4.26,9.75,9.75,0,0,1,5.41-1.39,19.38,19.38,0,0,1,5.56.72,15.84,15.84,0,0,1,3.6,1.47l1.79-4.55a15.42,15.42,0,0,0-4.36-1.7,26.31,26.31,0,0,0-6.59-.77q-6.28,0-9.85,2.93a10,10,0,0,0-3.57,8.18,9.53,9.53,0,0,0,3.11,7.4,21.63,21.63,0,0,0,7.54,3.95,27,27,0,0,1,6.63,3,6.44,6.44,0,0,1,2.88,5.39q0,6-8.76,6a20.85,20.85,0,0,1-6.62-.92,25.71,25.71,0,0,1-4-1.67l-1.67,4.6a20.88,20.88,0,0,0,4.43,1.76,29.66,29.66,0,0,0,7.89,1.07q7,0,10.81-2.83a9.41,9.41,0,0,0,3.83-8.06,10.69,10.69,0,0,0-3.32-8.24C654.74,429.57,651.55,428.35,648.62,427.17Z"></path> <path class="cls-3" d="M96,163.3V327.22h.73c17.75-166,386.37-70.13,386.37-70.13V210.52C480.39,209.89,96,116,96,163.3Z"></path> <path class="cls-4" d="M373.47,96C443.09,96,483.1,257.09,483.1,257.09V96Z"></path> <path class="cls-5" d="M373.47,96c-38.81,80.74-91.77,157.83-156.91,223.1C169.82,272.26,129.47,219.29,96,163.3v164q32.07,38.58,67.66,74.22,25.56,25.59,52.9,49.37,27.3-23.79,52.9-49.37C357.72,313.23,430.41,210.89,483.1,96Z"></path> </g> </g> </svg> 