<svg width="238" height="64" fill="none" xmlns="http://www.w3.org/2000/svg"><path d="M5.531 56.515c0-.813-.596-1.301-1.41-1.301H2.006v2.549h2.115c.814.054 1.41-.488 1.41-1.248zM0 62.915v-9.437h4.447c2.06 0 3.145 1.41 3.145 3.037s-1.139 3.038-3.145 3.038h-2.44v3.362H0zm13.72-3.417c0-1.084-.651-2.006-1.736-2.006-1.139 0-1.735.922-1.735 2.006 0 1.085.596 2.007 1.735 2.007 1.085 0 1.735-.922 1.735-2.007zm-5.37 0c0-1.952 1.357-3.58 3.634-3.58 2.278 0 3.633 1.628 3.633 3.58 0 1.953-1.355 3.58-3.633 3.58-2.277 0-3.633-1.627-3.633-3.58zm8.406 0c0-2.115 1.518-3.58 3.633-3.58 1.41 0 2.224.597 2.712 1.248l-1.193 1.085c-.326-.488-.814-.76-1.465-.76-1.084 0-1.843.814-1.843 2.007 0 1.194.759 2.007 1.843 2.007.597 0 1.14-.271 1.465-.76l1.192 1.086c-.433.65-1.3 1.247-2.71 1.247-2.116 0-3.634-1.464-3.634-3.58zm9.327 3.417v-5.26h-1.898V56.08h5.64v1.573h-1.898v5.261h-1.844zm7.971-5.586c-1.138 0-1.627.813-1.68 1.518h3.361c-.054-.65-.488-1.518-1.68-1.518zm-3.524 2.17c0-2.007 1.464-3.58 3.524-3.58s3.417 1.518 3.417 3.742v.38h-5.098c.109.867.814 1.573 1.953 1.573.596 0 1.41-.272 1.843-.706l.814 1.14c-.705.596-1.736.976-2.82.976-2.06.054-3.633-1.356-3.633-3.526zm12.472 3.416l-1.573-2.278-1.573 2.278h-1.952l2.386-3.525-2.277-3.309h2.006l1.41 2.116 1.41-2.116h2.006l-2.277 3.309 2.44 3.525h-2.006zm-4.013-40.298V7.485H23.968l5.857-5.858h15.02v15.078l-5.856 5.912zm5.856 23.864h-15.02l-5.857-5.857h15.02V25.546l5.857 5.912V46.48zM0 16.705V1.627h15.075l5.856 5.858H5.911v15.132L0 16.705zm0 14.752l5.91-5.911v15.078h15.021l-5.856 5.857H0V31.457zm92.348 2.225v-3.797h-4.826v3.797h-1.03v-8.245h1.03v3.526h4.826v-3.526h1.03v8.245h-1.03zm3.904 0v-8.245h5.368v.922h-4.392v2.658h4.284v.922h-4.284v2.82h4.392v.923h-5.368zm7.917 0v-8.245h5.368v.922h-4.338v7.323h-1.03zm7.375-4.122c0-2.441 1.627-4.231 4.067-4.231 2.44 0 4.067 1.844 4.067 4.23 0 2.441-1.627 4.23-4.067 4.23-2.386 0-4.067-1.789-4.067-4.23zm7.103 0c0-1.899-1.193-3.363-3.036-3.363-1.844 0-3.037 1.41-3.037 3.362 0 1.899 1.193 3.363 3.037 3.363 1.898 0 3.036-1.464 3.036-3.363zm3.308 0c0-2.55 1.844-4.231 4.23-4.231 1.464 0 2.44.705 3.145 1.627l-.867.488a2.748 2.748 0 00-2.278-1.193c-1.789 0-3.145 1.356-3.145 3.363 0 1.952 1.356 3.362 3.145 3.362.922 0 1.79-.488 2.278-1.193l.867.488c-.705.922-1.681 1.627-3.145 1.627-2.386-.108-4.23-1.79-4.23-4.339zm8.785 3.58l.434-.814c.271.325.651.542 1.139.542.65 0 .921-.325 1.355-1.193l.163-.271-3.145-5.966h1.193l2.603 5.098 2.603-5.099h1.192l-3.578 6.78c-.543.976-1.085 1.627-2.224 1.627-.813-.054-1.41-.325-1.735-.705zm8.893-.326c.976-.054 1.519-.488 1.898-3.255l.488-4.122h5.043v7.323h.759v2.44h-1.03v-1.518h-6.128V35.2h-1.03v-2.386zm1.627-.054h4.772v-6.4h-3.091l-.434 3.308c-.217 1.736-.651 2.603-1.247 3.092zm14.641.922l-.705-1.845h-4.121l-.705 1.845h-1.193l3.308-8.245h1.247l3.308 8.245h-1.139zm-2.765-7.16L151.4 30.97h3.471l-1.735-4.448zm5.91 7.16v-8.245h3.308c1.627 0 2.603 1.14 2.603 2.495 0 1.356-.976 2.495-2.603 2.495h-2.277v3.255h-1.031zm4.827-5.75c0-.922-.651-1.572-1.627-1.572h-2.169v3.145h2.169c.976 0 1.627-.65 1.627-1.573zm3.036 1.628c0-2.55 1.844-4.231 4.23-4.231 1.464 0 2.494.705 3.145 1.627l-.868.488a2.746 2.746 0 00-2.277-1.193c-1.79 0-3.145 1.356-3.145 3.363 0 1.952 1.355 3.362 3.145 3.362.922 0 1.789-.488 2.277-1.193l.868.488c-.705.922-1.681 1.627-3.145 1.627-2.386-.108-4.23-1.79-4.23-4.339zm11.659 4.122v-7.323h-2.603v-.922h6.236v.922h-2.603v7.323h-1.03zm5.91 0v-8.245h3.688c1.41 0 2.332.868 2.332 2.116 0 1.03-.705 1.735-1.465 1.898.868.163 1.627 1.03 1.627 2.007 0 1.302-.867 2.224-2.386 2.224h-3.796zm4.881-6.02c0-.76-.488-1.357-1.41-1.357h-2.44v2.658h2.44c.922.054 1.41-.542 1.41-1.302zm.162 3.687c0-.759-.542-1.41-1.518-1.41h-2.494v2.82h2.494c.976 0 1.518-.542 1.518-1.41zm3.634 2.333v-8.245h5.368v.922h-4.392v2.658h4.284v.922h-4.284v2.82h4.392v.923h-5.368zm13.773 0v-3.797h-4.826v3.797h-1.03v-8.245h1.03v3.526h4.826v-3.526h1.031v8.245h-1.031zm9.707 0v-3.797h-4.827v3.797h-1.03v-8.245h1.03v3.526h4.827v-3.526h1.03v8.245h-1.03zm4.934-8.244v3.254h2.278c1.627 0 2.603 1.139 2.603 2.495s-.922 2.495-2.603 2.495h-3.308v-8.245h1.03zm0 4.176v3.146h2.169c.976 0 1.627-.651 1.627-1.573 0-.922-.651-1.573-1.627-1.573h-2.169zm5.748 4.068v-8.245h1.031v8.245h-1.031zm3.85-.001v-8.244h1.031v6.455l4.717-6.455h1.031v8.244h-.976V27.12l-4.826 6.563h-.977zm3.417-8.732a2.747 2.747 0 01-2.169-1.085l.434-.38c.379.543.976.869 1.735.869a2.01 2.01 0 001.681-.868l.434.38c-.434.705-1.248 1.084-2.115 1.084zM92.348 46.644v-7.322h-4.826v7.322h-1.03V38.4h6.886v8.244h-1.03zm3.904 0V38.4h5.368v.922h-4.392v2.658h4.284v.922h-4.284v2.82h4.392v.922h-5.368zm13.773 0v-3.796h-4.826v3.796h-1.03V38.4h1.03v3.526h4.826V38.4h1.031v8.244h-1.031zm3.525-4.122c0-2.549 1.844-4.23 4.23-4.23 1.464 0 2.44.705 3.145 1.627l-.868.488a2.746 2.746 0 00-2.277-1.193c-1.79 0-3.145 1.356-3.145 3.363 0 1.952 1.355 3.362 3.145 3.362.922 0 1.789-.488 2.277-1.193l.868.488c-.705.922-1.681 1.627-3.145 1.627-2.332-.054-4.23-1.79-4.23-4.339zm9.598 4.122V38.4h1.031v6.454l4.717-6.454h1.031v8.244h-1.031v-6.563l-4.772 6.563h-.976zm9.327-4.122c0-2.44 1.627-4.23 4.067-4.23 2.441 0 4.067 1.844 4.067 4.23 0 2.44-1.626 4.23-4.067 4.23-2.386.055-4.067-1.79-4.067-4.23zm7.104 0c0-1.898-1.193-3.362-3.037-3.362-1.843 0-3.036 1.41-3.036 3.362 0 1.899 1.193 3.363 3.036 3.363 1.898 0 3.037-1.464 3.037-3.363zm9.435 4.122v-3.796h-4.826v3.796h-1.03V38.4h1.03v3.526h4.826V38.4h1.031v8.244h-1.031zm9.707 0v-3.796h-4.826v3.796h-.976V38.4h1.03v3.526h4.826V38.4h1.03v8.244h-1.084zm4.935-8.244v3.254h2.277c1.627 0 2.603 1.14 2.603 2.495 0 1.356-.922 2.495-2.603 2.495h-3.308V38.4h1.031zm0 4.176v3.146h2.169c.976 0 1.626-.65 1.626-1.573 0-.922-.65-1.573-1.626-1.573h-2.169zm5.748 4.068V38.4h1.03v8.244h-1.03zm3.85 0V38.4h1.03v6.454l4.718-6.454h1.03v8.244h-1.03v-6.563l-4.772 6.563h-.976zm3.416-8.678a2.747 2.747 0 01-2.169-1.085l.434-.38c.379.543.976.869 1.735.869a2.01 2.01 0 001.681-.868l.434.38c-.434.65-1.248 1.084-2.115 1.084zm13.827 8.678v-.813c-2.385-.163-3.85-1.465-3.85-3.309s1.465-3.146 3.85-3.308V38.4h1.031v.814c2.386.162 3.85 1.464 3.85 3.308 0 1.844-1.464 3.146-3.85 3.309v.813h-1.031zm0-1.735v-4.773c-1.735.162-2.765 1.084-2.765 2.386.054 1.302 1.03 2.224 2.765 2.387zm1.031-4.773v4.773c1.735-.163 2.765-1.085 2.765-2.387.055-1.301-1.03-2.224-2.765-2.386zm6.019 2.386c0-2.44 1.627-4.23 4.067-4.23 2.44 0 4.067 1.844 4.067 4.23 0 2.44-1.627 4.23-4.067 4.23-2.386.055-4.067-1.79-4.067-4.23zm7.104 0c0-1.898-1.193-3.362-3.037-3.362-1.844 0-3.037 1.41-3.037 3.362 0 1.899 1.193 3.363 3.037 3.363 1.898 0 3.037-1.464 3.037-3.363zm9.435 4.122v-3.796h-4.772v3.796h-1.03V38.4h1.03v3.526h4.826V38.4h1.031v8.244h-1.085zm3.308-.814c.976-.054 1.518-.487 1.898-3.254l.488-4.122h5.043v7.322h.759v2.441h-1.03v-1.573h-6.128v1.519h-1.03V45.83zm1.681-.108h4.772v-6.4h-3.145l-.434 3.309c-.163 1.735-.597 2.657-1.193 3.091zM66.32 0h-.814v64h.813V0z" fill="#101820"/></svg>