<svg width="162" height="48" viewBox="0 0 162 48" fill="none" xmlns="http://www.w3.org/2000/svg">
<path d="M27.101 30.427H29.5514V19.72H36.9812V30.427H39.4317V17.5156H27.101V30.427Z" fill="#1C1C1C"/>
<path d="M42.2747 30.427H44.7251V25.723H50.3122C53.2724 25.723 55.0955 24.1878 55.0955 21.7275V21.511C55.0955 19.0508 53.2528 17.5156 50.3122 17.5156H42.2747V30.427ZM44.7251 23.5186V19.72H50.2534C51.7629 19.72 52.6058 20.3695 52.6058 21.511V21.7275C52.6058 22.8691 51.7629 23.5186 50.2534 23.5186H44.7251Z" fill="#1C1C1C"/>
<path d="M62.7104 17.5156H60.0051L54.1239 30.053V30.427H56.6136L57.9467 27.4747H64.7688L66.1018 30.427H68.5914V30.053L62.7104 17.5156ZM58.9661 25.2703L61.3577 19.9955L63.7494 25.2703H58.9661Z" fill="#1C1C1C"/>
<path d="M80.7601 23.7941C81.7206 23.184 82.25 22.259 82.25 21.078V20.8616C82.25 18.7359 80.5444 17.5156 77.5842 17.5156H70.076V30.427H77.9763C80.8189 30.427 82.6616 28.9902 82.6616 26.7661V26.5496C82.6616 25.2703 81.9951 24.3255 80.7601 23.7941ZM77.5842 19.72C78.9957 19.72 79.7603 20.212 79.7603 21.1568V21.3733C79.7603 22.3574 79.0545 22.8101 77.5646 22.8101H72.5265V19.72H77.5842ZM80.1719 26.6874C80.1719 27.6518 79.3486 28.2226 77.9371 28.2226H72.5265V25.0144H77.9371C79.4466 25.0144 80.1719 25.4868 80.1719 26.4709V26.6874Z" fill="#1C1C1C"/>
<path d="M91.9215 30.6629C96.4892 30.6629 99.4102 28.1043 99.4102 24.0893V23.8727C99.4102 19.8576 96.4892 17.2793 91.9215 17.2793C87.3538 17.2793 84.4133 19.8576 84.4133 23.8727V24.0893C84.4133 28.1043 87.3538 30.6629 91.9215 30.6629ZM91.9215 28.3798C88.7261 28.3798 86.903 26.8251 86.903 24.1286V23.853C86.903 21.1566 88.7261 19.5624 91.9215 19.5624C95.117 19.5624 96.9205 21.1566 96.9205 23.853V24.1286C96.9205 26.8251 95.117 28.3798 91.9215 28.3798Z" fill="#1C1C1C"/>
<path d="M114.704 17.5156H111.744L106.666 22.7707H104.137V17.5156H101.687V30.427H104.137V24.975H106.686L111.607 30.427H114.469V30.053L108.94 23.8138L114.704 17.8896V17.5156Z" fill="#1C1C1C"/>
<path d="M124.171 17.5156H121.466L115.585 30.053V30.427H118.074L119.407 27.4747H126.23L127.563 30.427H130.052V30.053L124.171 17.5156ZM120.427 25.2703L122.819 19.9955L125.21 25.2703H120.427Z" fill="#1C1C1C"/>
<path d="M131.537 30.427H133.987V25.723H139.574C142.535 25.723 144.358 24.1878 144.358 21.7275V21.511C144.358 19.0508 142.515 17.5156 139.574 17.5156H131.537V30.427ZM133.987 23.5186V19.72H139.516C141.025 19.72 141.868 20.3695 141.868 21.511V21.7275C141.868 22.8691 141.025 23.5186 139.516 23.5186H133.987Z" fill="#1C1C1C"/>
<path d="M157.996 28.2226V17.5156H146.979L146.881 23.7548C146.861 25.5655 146.43 27.0613 145.705 28.2226H144.058V33.0447H146.509V30.427H157.545V33.0447H159.996V28.2226H157.996ZM149.155 23.8335L149.253 19.72H155.565V28.2226H148.155C148.724 27.1794 149.116 25.7426 149.155 23.8335Z" fill="#1C1C1C"/>
<path fill-rule="evenodd" clip-rule="evenodd" d="M8.92245 14H10.7934C11.2087 18.5972 14.5062 21.8432 19.6992 23.0026V24.8755C14.4681 26.0484 11.1642 29.3411 10.7983 34.0001H8.93386C8.56889 29.3219 5.26004 26.0213 0 24.8611V23.0136C5.2124 21.8634 8.50859 18.6115 8.92245 14ZM9.88419 20.4016C8.87696 21.7563 7.66731 22.91 6.26865 23.8446C7.68387 24.8331 8.89166 26.081 9.88419 27.5015C10.8801 26.0838 12.1419 24.8291 13.5586 23.8446C12.1535 22.9085 10.8956 21.7617 9.88419 20.4016Z" fill="#1C1C1C"/>
</svg>
